STARTFONT 2.1
FONT -Bitstream-Terminal-Bold-R-Wide--18-140-100-100-C-140-ISO8859-1
SIZE 14 100 100
FONTBOUNDINGBOX 14 19 0 -4

STARTPROPERTIES 25
CHARSET_REGISTRY "ISO8859"
CHARSET_ENCODING "1"
CAP_HEIGHT 11
X_HEIGHT 9
AVERAGE_WIDTH 140
FONTNAME_REGISTRY ""
FAMILY_NAME "Terminal"
FOUNDRY "Bitstream"
WEIGHT_NAME "Bold"
SETWIDTH_NAME "Wide"
SLANT "R"
ADD_STYLE_NAME ""
PIXEL_SIZE 18
POINT_SIZE 140
RESOLUTION_X 100
RESOLUTION_Y 100
SPACING "C"
CHARSET_COLLECTIONS "ASCII ISO8859-1"
FULL_NAME "Terminal Bold Wide"
COPYRIGHT "Copyright (c) 1988 Bitstream, Inc.,  Copyright 1990 Digital Equipment Corp. All rights reserved."
WEIGHT 10
QUAD_WIDTH 14
DEFAULT_CHAR 159
FONT_DESCENT 5
FONT_ASCENT 15
ENDPROPERTIES

CHARS 194

STARTCHAR space
ENCODING 32
SWIDTH 720 0
DWIDTH 14 0
BBX 1 1 0 0
BITMAP
00
ENDCHAR

STARTCHAR exclam
ENCODING 33
SWIDTH 720 0
DWIDTH 14 0
BBX 6 11 4 0
BITMAP
78
78
78
78
78
78
78
00
78
FC
78
ENDCHAR

STARTCHAR quotedbl
ENCODING 34
SWIDTH 720 0
DWIDTH 14 0
BBX 8 5 3 6
BITMAP
E7
E7
E7
E7
E7
ENDCHAR

STARTCHAR numbersign
ENCODING 35
SWIDTH 720 0
DWIDTH 14 0
BBX 12 13 1 -2
BITMAP
39C0
39C0
39C0
FFF0
FFF0
39C0
39C0
FFF0
FFF0
39C0
39C0
39C0
39C0
ENDCHAR

STARTCHAR dollar
ENCODING 36
SWIDTH 720 0
DWIDTH 14 0
BBX 12 15 1 -3
BITMAP
0700
0700
3FB0
7FF0
F070
F000
7F80
3FE0
00F0
E0F0
FFE0
DFC0
0E00
0E00
0E00
ENDCHAR

STARTCHAR percent
ENCODING 37
SWIDTH 720 0
DWIDTH 14 0
BBX 14 11 0 0
BITMAP
3F00
F3C0
F3C0
3F1C
00FC
0FC0
FC00
E3F0
0F3C
0F3C
03F0
ENDCHAR

STARTCHAR ampersand
ENCODING 38
SWIDTH 720 0
DWIDTH 14 0
BBX 12 11 1 0
BITMAP
0EC0
3FC0
3CC0
3C00
0E00
3E00
FF30
F3F0
F3C0
FFF0
3CF0
ENDCHAR

STARTCHAR quoteright
ENCODING 39
SWIDTH 720 0
DWIDTH 14 0
BBX 7 5 3 8
BITMAP
1E
3C
38
70
E0
ENDCHAR

STARTCHAR parenleft
ENCODING 40
SWIDTH 720 0
DWIDTH 14 0
BBX 8 16 3 -3
BITMAP
07
1E
3C
78
78
F0
F0
F0
F0
F0
F0
78
78
3C
1E
07
ENDCHAR

STARTCHAR parenright
ENCODING 41
SWIDTH 720 0
DWIDTH 14 0
BBX 8 16 3 -3
BITMAP
E0
78
3C
1E
1E
0F
0F
0F
0F
0F
0F
1E
1E
3C
78
E0
ENDCHAR

STARTCHAR asterisk
ENCODING 42
SWIDTH 720 0
DWIDTH 14 0
BBX 10 7 2 2
BITMAP
0C00
0C00
EDC0
FFC0
1E00
7380
E1C0
ENDCHAR

STARTCHAR plus
ENCODING 43
SWIDTH 720 0
DWIDTH 14 0
BBX 12 8 1 1
BITMAP
0F00
0F00
0F00
FFF0
FFF0
0F00
0F00
0F00
ENDCHAR

STARTCHAR comma
ENCODING 44
SWIDTH 720 0
DWIDTH 14 0
BBX 6 5 4 -2
BITMAP
3C
3C
78
F0
E0
ENDCHAR

STARTCHAR minus
ENCODING 45
SWIDTH 720 0
DWIDTH 14 0
BBX 10 2 2 4
BITMAP
FFC0
FFC0
ENDCHAR

STARTCHAR period
ENCODING 46
SWIDTH 720 0
DWIDTH 14 0
BBX 6 3 4 0
BITMAP
78
FC
78
ENDCHAR

STARTCHAR slash
ENCODING 47
SWIDTH 720 0
DWIDTH 14 0
BBX 12 13 1 -1
BITMAP
00F0
01E0
01E0
03C0
0780
0780
0F00
0F00
1E00
3C00
3C00
7800
F000
ENDCHAR

STARTCHAR zero
ENCODING 48
SWIDTH 720 0
DWIDTH 14 0
BBX 12 11 1 0
BITMAP
0F00
3FC0
79E0
70E0
F0F0
F0F0
F0F0
70E0
79E0
3FC0
0F00
ENDCHAR

STARTCHAR one
ENCODING 49
SWIDTH 720 0
DWIDTH 14 0
BBX 10 11 2 0
BITMAP
1E00
3E00
FE00
DE00
1E00
1E00
1E00
1E00
1E00
FFC0
FFC0
ENDCHAR

STARTCHAR two
ENCODING 50
SWIDTH 720 0
DWIDTH 14 0
BBX 11 11 1 0
BITMAP
3F80
FFE0
E1E0
C1E0
03C0
0780
0F00
3C00
7860
FFE0
FFE0
ENDCHAR

STARTCHAR three
ENCODING 51
SWIDTH 720 0
DWIDTH 14 0
BBX 11 11 1 0
BITMAP
3F80
FFE0
E1E0
01E0
1F80
1FE0
01E0
01E0
E1E0
FFE0
3F80
ENDCHAR

STARTCHAR four
ENCODING 52
SWIDTH 720 0
DWIDTH 14 0
BBX 11 11 1 0
BITMAP
0780
0F80
1F80
3780
6780
C780
FFE0
FFE0
0780
0780
0780
ENDCHAR

STARTCHAR five
ENCODING 53
SWIDTH 720 0
DWIDTH 14 0
BBX 11 11 1 0
BITMAP
FFE0
FFE0
F000
F000
FF80
FFE0
01E0
01E0
E1E0
FFC0
3F80
ENDCHAR

STARTCHAR six
ENCODING 54
SWIDTH 720 0
DWIDTH 14 0
BBX 11 11 1 0
BITMAP
07C0
1FC0
3C00
7800
7F80
FFC0
F1E0
F1E0
F1E0
7FC0
3F80
ENDCHAR

STARTCHAR seven
ENCODING 55
SWIDTH 720 0
DWIDTH 14 0
BBX 11 11 1 0
BITMAP
FFE0
FFE0
C1E0
01C0
03C0
0380
0780
0700
0F00
0E00
1E00
ENDCHAR

STARTCHAR eight
ENCODING 56
SWIDTH 720 0
DWIDTH 14 0
BBX 11 11 1 0
BITMAP
3F80
FFE0
F1E0
F1E0
3F80
FFE0
F1E0
F1E0
F1E0
FFE0
3F80
ENDCHAR

STARTCHAR nine
ENCODING 57
SWIDTH 720 0
DWIDTH 14 0
BBX 11 11 1 0
BITMAP
3F80
7FC0
F1E0
F1E0
F1E0
7FE0
3FE0
01C0
03C0
7F80
7E00
ENDCHAR

STARTCHAR colon
ENCODING 58
SWIDTH 720 0
DWIDTH 14 0
BBX 6 8 4 0
BITMAP
78
FC
78
00
00
78
FC
78
ENDCHAR

STARTCHAR semicolon
ENCODING 59
SWIDTH 720 0
DWIDTH 14 0
BBX 7 10 3 -2
BITMAP
3C
7E
3C
00
00
3C
3C
78
F0
E0
ENDCHAR

STARTCHAR less
ENCODING 60
SWIDTH 720 0
DWIDTH 14 0
BBX 12 11 1 0
BITMAP
0030
00F0
03F0
0FC0
3F00
FC00
3F00
0FC0
03F0
00F0
0030
ENDCHAR

STARTCHAR equal
ENCODING 61
SWIDTH 720 0
DWIDTH 14 0
BBX 12 6 1 2
BITMAP
FFF0
FFF0
0000
0000
FFF0
FFF0
ENDCHAR

STARTCHAR greater
ENCODING 62
SWIDTH 720 0
DWIDTH 14 0
BBX 12 11 1 0
BITMAP
C000
F000
FC00
3F00
0FC0
03F0
0FC0
3F00
FC00
F000
C000
ENDCHAR

STARTCHAR question
ENCODING 63
SWIDTH 720 0
DWIDTH 14 0
BBX 12 11 1 0
BITMAP
3FE0
FFF0
E0F0
03F0
07C0
0F00
0F00
0000
0F00
1F80
0F00
ENDCHAR

STARTCHAR at
ENCODING 64
SWIDTH 720 0
DWIDTH 14 0
BBX 12 14 1 -2
BITMAP
3FC0
7FE0
F0E0
E0E0
E7E0
EFE0
EEE0
EEE0
EFF0
E7B0
E000
F030
7FF0
3FC0
ENDCHAR

STARTCHAR A
ENCODING 65
SWIDTH 720 0
DWIDTH 14 0
BBX 12 11 1 0
BITMAP
0F00
1F80
3FC0
79E0
F0F0
F0F0
FFF0
FFF0
F0F0
F0F0
F0F0
ENDCHAR

STARTCHAR B
ENCODING 66
SWIDTH 720 0
DWIDTH 14 0
BBX 12 11 1 0
BITMAP
FFC0
FFE0
F0F0
F0F0
FFE0
FFC0
F0F0
F0F0
F0F0
FFF0
FFC0
ENDCHAR

STARTCHAR C
ENCODING 67
SWIDTH 720 0
DWIDTH 14 0
BBX 12 11 1 0
BITMAP
1FB0
7FF0
7870
F070
F000
F000
F000
F000
7870
7FF0
1FC0
ENDCHAR

STARTCHAR D
ENCODING 68
SWIDTH 720 0
DWIDTH 14 0
BBX 12 11 1 0
BITMAP
FF80
FFE0
F1E0
F0F0
F0F0
F0F0
F0F0
F0F0
F1E0
FFE0
FF80
ENDCHAR

STARTCHAR E
ENCODING 69
SWIDTH 720 0
DWIDTH 14 0
BBX 12 11 1 0
BITMAP
FFF0
FFF0
F000
F000
FFC0
FFC0
F000
F000
F000
FFF0
FFF0
ENDCHAR

STARTCHAR F
ENCODING 70
SWIDTH 720 0
DWIDTH 14 0
BBX 12 11 1 0
BITMAP
FFF0
FFF0
F000
F000
F000
FFC0
FFC0
F000
F000
F000
F000
ENDCHAR

STARTCHAR G
ENCODING 71
SWIDTH 720 0
DWIDTH 14 0
BBX 12 11 1 0
BITMAP
1FB0
7FF0
7870
F070
F000
F3F0
F3F0
F0F0
78F0
7FF0
1FC0
ENDCHAR

STARTCHAR H
ENCODING 72
SWIDTH 720 0
DWIDTH 14 0
BBX 12 11 1 0
BITMAP
F0F0
F0F0
F0F0
F0F0
FFF0
FFF0
F0F0
F0F0
F0F0
F0F0
F0F0
ENDCHAR

STARTCHAR I
ENCODING 73
SWIDTH 720 0
DWIDTH 14 0
BBX 12 11 1 0
BITMAP
FFF0
FFF0
0F00
0F00
0F00
0F00
0F00
0F00
0F00
FFF0
FFF0
ENDCHAR

STARTCHAR J
ENCODING 74
SWIDTH 720 0
DWIDTH 14 0
BBX 12 11 1 0
BITMAP
3FF0
3FF0
03C0
03C0
03C0
03C0
E3C0
E3C0
F3C0
FF80
3F00
ENDCHAR

STARTCHAR K
ENCODING 75
SWIDTH 720 0
DWIDTH 14 0
BBX 12 11 1 0
BITMAP
F0F0
F1F0
F3C0
F780
FF00
FF00
FFC0
F3C0
F1E0
F0F0
F0F0
ENDCHAR

STARTCHAR L
ENCODING 76
SWIDTH 720 0
DWIDTH 14 0
BBX 12 11 1 0
BITMAP
FF00
FF00
3C00
3C00
3C00
3C00
3C00
3C30
3C30
FFF0
FFF0
ENDCHAR

STARTCHAR M
ENCODING 77
SWIDTH 720 0
DWIDTH 14 0
BBX 12 11 1 0
BITMAP
E070
F0F0
F0F0
F9F0
F9F0
EF70
F6F0
F6F0
F0F0
F0F0
F0F0
ENDCHAR

STARTCHAR N
ENCODING 78
SWIDTH 720 0
DWIDTH 14 0
BBX 12 11 1 0
BITMAP
F0F0
F8F0
F8F0
FCF0
FCF0
F6F0
F7F0
F3F0
F3F0
F1F0
F0F0
ENDCHAR

STARTCHAR O
ENCODING 79
SWIDTH 720 0
DWIDTH 14 0
BBX 12 11 1 0
BITMAP
1F80
7FE0
F9F0
F0F0
F0F0
F0F0
F0F0
F0F0
F9F0
7FE0
1F80
ENDCHAR

STARTCHAR P
ENCODING 80
SWIDTH 720 0
DWIDTH 14 0
BBX 12 11 1 0
BITMAP
FFC0
FFF0
F0F0
F0F0
F0F0
FFF0
FFC0
F000
F000
F000
F000
ENDCHAR

STARTCHAR Q
ENCODING 81
SWIDTH 720 0
DWIDTH 14 0
BBX 12 15 1 -4
BITMAP
1F80
7FE0
79E0
F0F0
F0F0
F0F0
F0F0
F0F0
79E0
7FE0
1F80
3800
7E30
EFF0
C3E0
ENDCHAR

STARTCHAR R
ENCODING 82
SWIDTH 720 0
DWIDTH 14 0
BBX 12 11 1 0
BITMAP
FFC0
FFE0
F0F0
F0F0
F0F0
FFE0
FF80
F3C0
F1C0
F1F0
F0F0
ENDCHAR

STARTCHAR S
ENCODING 83
SWIDTH 720 0
DWIDTH 14 0
BBX 12 11 1 0
BITMAP
3F70
FFF0
F0F0
F000
FE00
7FC0
0FF0
00F0
E0F0
FFF0
DFC0
ENDCHAR

STARTCHAR T
ENCODING 84
SWIDTH 720 0
DWIDTH 14 0
BBX 12 11 1 0
BITMAP
FFF0
FFF0
CF30
CF30
0F00
0F00
0F00
0F00
0F00
1F80
1F80
ENDCHAR

STARTCHAR U
ENCODING 85
SWIDTH 720 0
DWIDTH 14 0
BBX 12 11 1 0
BITMAP
F0F0
F0F0
F0F0
F0F0
F0F0
F0F0
F0F0
F0F0
F9F0
7FE0
3FC0
ENDCHAR

STARTCHAR V
ENCODING 86
SWIDTH 720 0
DWIDTH 14 0
BBX 12 11 1 0
BITMAP
F0F0
F0F0
F0F0
F0F0
F0F0
F0F0
70E0
79E0
3FC0
1F80
0F00
ENDCHAR

STARTCHAR W
ENCODING 87
SWIDTH 720 0
DWIDTH 14 0
BBX 12 11 1 0
BITMAP
F0F0
F0F0
F0F0
F0F0
F6F0
F6F0
FFF0
F9F0
70E0
70E0
6060
ENDCHAR

STARTCHAR X
ENCODING 88
SWIDTH 720 0
DWIDTH 14 0
BBX 12 11 1 0
BITMAP
F0F0
F0F0
79E0
3FC0
1F80
0F00
1F80
3FC0
79E0
F0F0
F0F0
ENDCHAR

STARTCHAR Y
ENCODING 89
SWIDTH 720 0
DWIDTH 14 0
BBX 12 11 1 0
BITMAP
F0F0
F0F0
70E0
39C0
39C0
1F80
0F00
0F00
0F00
0F00
0F00
ENDCHAR

STARTCHAR Z
ENCODING 90
SWIDTH 720 0
DWIDTH 14 0
BBX 12 11 1 0
BITMAP
FFF0
FFF0
C1E0
C3C0
0780
0F00
1E00
3C30
7830
FFF0
FFF0
ENDCHAR

STARTCHAR bracketleft
ENCODING 91
SWIDTH 720 0
DWIDTH 14 0
BBX 6 16 4 -3
BITMAP
FC
FC
F0
F0
F0
F0
F0
F0
F0
F0
F0
F0
F0
F0
FC
FC
ENDCHAR

STARTCHAR backslash
ENCODING 92
SWIDTH 720 0
DWIDTH 14 0
BBX 11 13 1 -1
BITMAP
F000
7800
7800
3C00
3C00
1E00
0F00
0F00
0780
0780
03C0
03C0
01E0
ENDCHAR

STARTCHAR bracketright
ENCODING 93
SWIDTH 720 0
DWIDTH 14 0
BBX 6 16 3 -3
BITMAP
FC
FC
3C
3C
3C
3C
3C
3C
3C
3C
3C
3C
3C
3C
FC
FC
ENDCHAR

STARTCHAR asciicircum
ENCODING 94
SWIDTH 720 0
DWIDTH 14 0
BBX 12 4 1 5
BITMAP
0F00
3FC0
F0F0
C030
ENDCHAR

STARTCHAR underscore
ENCODING 95
SWIDTH 720 0
DWIDTH 14 0
BBX 14 2 0 0
BITMAP
FFFC
FFFC
ENDCHAR

STARTCHAR quoteleft
ENCODING 96
SWIDTH 720 0
DWIDTH 14 0
BBX 7 4 3 9
BITMAP
F0
78
3C
1E
ENDCHAR

STARTCHAR a
ENCODING 97
SWIDTH 720 0
DWIDTH 14 0
BBX 12 9 1 0
BITMAP
3FE0
7FF0
00F0
7FF0
FFF0
F0F0
F0F0
FFF0
7EF0
ENDCHAR

STARTCHAR b
ENCODING 98
SWIDTH 720 0
DWIDTH 14 0
BBX 12 12 1 0
BITMAP
F000
F000
F000
F7C0
FFE0
F8F0
F0F0
F0F0
F0F0
F8F0
FFE0
F7C0
ENDCHAR

STARTCHAR c
ENCODING 99
SWIDTH 720 0
DWIDTH 14 0
BBX 12 9 1 0
BITMAP
3FB0
7FF0
F0F0
F070
F000
F000
F070
7FF0
3FC0
ENDCHAR

STARTCHAR d
ENCODING 100
SWIDTH 720 0
DWIDTH 14 0
BBX 12 12 1 0
BITMAP
00F0
00F0
00F0
3EF0
7FF0
F1F0
F0F0
F0F0
F0F0
F1F0
7FF0
3EF0
ENDCHAR

STARTCHAR e
ENCODING 101
SWIDTH 720 0
DWIDTH 14 0
BBX 12 9 1 0
BITMAP
3FC0
7FE0
F0F0
FFF0
FFF0
F000
F070
7FF0
3FC0
ENDCHAR

STARTCHAR f
ENCODING 102
SWIDTH 720 0
DWIDTH 14 0
BBX 12 12 1 0
BITMAP
0FE0
1FF0
1E00
FFF0
FFF0
1E00
1E00
1E00
1E00
1E00
7FC0
7FC0
ENDCHAR

STARTCHAR g
ENCODING 103
SWIDTH 720 0
DWIDTH 14 0
BBX 12 13 1 -4
BITMAP
3EF0
7FF0
F1F0
F0F0
F0F0
F0F0
F1F0
7FF0
3EF0
00F0
00F0
3FE0
3FC0
ENDCHAR

STARTCHAR h
ENCODING 104
SWIDTH 720 0
DWIDTH 14 0
BBX 12 12 1 0
BITMAP
F000
F000
F000
F3E0
FFF0
F8F0
F0F0
F0F0
F0F0
F0F0
F0F0
F0F0
ENDCHAR

STARTCHAR i
ENCODING 105
SWIDTH 720 0
DWIDTH 14 0
BBX 12 13 1 0
BITMAP
0F00
0F00
0F00
0000
7F00
7F00
0F00
0F00
0F00
0F00
0F00
FFF0
FFF0
ENDCHAR

STARTCHAR j
ENCODING 106
SWIDTH 720 0
DWIDTH 14 0
BBX 8 17 3 -4
BITMAP
0F
0F
0F
00
FF
FF
0F
0F
0F
0F
0F
0F
0F
0F
0F
FF
FC
ENDCHAR

STARTCHAR k
ENCODING 107
SWIDTH 720 0
DWIDTH 14 0
BBX 12 12 1 0
BITMAP
F000
F000
F000
F0F0
F1F0
F3C0
F780
FF00
FF80
F3C0
F1F0
F0F0
ENDCHAR

STARTCHAR l
ENCODING 108
SWIDTH 720 0
DWIDTH 14 0
BBX 12 12 1 0
BITMAP
3F00
3F00
0F00
0F00
0F00
0F00
0F00
0F00
0F00
0F00
FFF0
FFF0
ENDCHAR

STARTCHAR m
ENCODING 109
SWIDTH 720 0
DWIDTH 14 0
BBX 13 9 0 0
BITMAP
DEF0
FFF8
E738
E738
E738
E738
E738
E738
E738
ENDCHAR

STARTCHAR n
ENCODING 110
SWIDTH 720 0
DWIDTH 14 0
BBX 12 9 1 0
BITMAP
F3E0
FFF0
F8F0
F0F0
F0F0
F0F0
F0F0
F0F0
F0F0
ENDCHAR

STARTCHAR o
ENCODING 111
SWIDTH 720 0
DWIDTH 14 0
BBX 12 9 1 0
BITMAP
3FC0
7FE0
F0F0
F0F0
F0F0
F0F0
F0F0
7FE0
3FC0
ENDCHAR

STARTCHAR p
ENCODING 112
SWIDTH 720 0
DWIDTH 14 0
BBX 12 13 1 -4
BITMAP
F7C0
FFE0
F8F0
F0F0
F0F0
F0F0
F8F0
FFE0
F7C0
F000
F000
F000
F000
ENDCHAR

STARTCHAR q
ENCODING 113
SWIDTH 720 0
DWIDTH 14 0
BBX 12 13 1 -4
BITMAP
3EF0
7FF0
F1F0
F0F0
F0F0
F0F0
F1F0
7FF0
3EF0
00F0
00F0
00F0
00F0
ENDCHAR

STARTCHAR r
ENCODING 114
SWIDTH 720 0
DWIDTH 14 0
BBX 13 9 0 0
BITMAP
F9F0
FFF8
3E38
3C00
3C00
3C00
3C00
FFC0
FFC0
ENDCHAR

STARTCHAR s
ENCODING 115
SWIDTH 720 0
DWIDTH 14 0
BBX 12 9 1 0
BITMAP
7FB0
FFF0
F070
FE00
7FC0
07F0
C0F0
FFF0
FFE0
ENDCHAR

STARTCHAR t
ENCODING 116
SWIDTH 720 0
DWIDTH 14 0
BBX 12 12 1 0
BITMAP
3C00
3C00
3C00
FFF0
FFF0
3C00
3C00
3C00
3C00
3C70
1FF0
0FE0
ENDCHAR

STARTCHAR u
ENCODING 117
SWIDTH 720 0
DWIDTH 14 0
BBX 12 9 1 0
BITMAP
F0F0
F0F0
F0F0
F0F0
F0F0
F0F0
F1F0
7FF0
3EF0
ENDCHAR

STARTCHAR v
ENCODING 118
SWIDTH 720 0
DWIDTH 14 0
BBX 12 9 1 0
BITMAP
F0F0
F0F0
70E0
79E0
39C0
3FC0
1F80
1F80
0F00
ENDCHAR

STARTCHAR w
ENCODING 119
SWIDTH 720 0
DWIDTH 14 0
BBX 14 9 0 0
BITMAP
F03C
F03C
F33C
F33C
F33C
77B8
7CF8
3CF0
3870
ENDCHAR

STARTCHAR x
ENCODING 120
SWIDTH 720 0
DWIDTH 14 0
BBX 12 9 1 0
BITMAP
F0F0
F9F0
3FC0
1F80
0F00
1F80
3FC0
F9F0
F0F0
ENDCHAR

STARTCHAR y
ENCODING 121
SWIDTH 720 0
DWIDTH 14 0
BBX 12 13 1 -4
BITMAP
F0F0
F0F0
70E0
79E0
39C0
39C0
1F80
1F80
0F00
0F00
0E00
3F80
3F80
ENDCHAR

STARTCHAR z
ENCODING 122
SWIDTH 720 0
DWIDTH 14 0
BBX 12 9 1 0
BITMAP
FFF0
FFF0
01E0
03C0
0F80
1E00
3C00
FFF0
FFF0
ENDCHAR

STARTCHAR braceleft
ENCODING 123
SWIDTH 720 0
DWIDTH 14 0
BBX 8 16 3 -3
BITMAP
0F
1F
1C
1C
1C
1C
3C
F8
3C
1C
1C
1C
1C
1C
1F
0F
ENDCHAR

STARTCHAR bar
ENCODING 124
SWIDTH 720 0
DWIDTH 14 0
BBX 4 15 5 -2
BITMAP
F0
F0
F0
F0
F0
F0
F0
F0
F0
F0
F0
F0
F0
F0
F0
ENDCHAR

STARTCHAR braceright
ENCODING 125
SWIDTH 720 0
DWIDTH 14 0
BBX 8 16 3 -3
BITMAP
F0
F8
38
38
38
38
3C
1F
3C
38
38
38
38
38
F8
F0
ENDCHAR

STARTCHAR asciitilde
ENCODING 126
SWIDTH 720 0
DWIDTH 14 0
BBX 12 3 1 6
BITMAP
7C30
FFF0
C3E0
ENDCHAR

STARTCHAR OE
ENCODING 128
SWIDTH 720 0
DWIDTH 14 0
BBX 12 11 1 0
BITMAP
3FF0
7FF0
F3C0
F3C0
F3F0
F3F0
F3C0
F3C0
F3C0
7FF0
3FF0
ENDCHAR

STARTCHAR oe
ENCODING 129
SWIDTH 720 0
DWIDTH 14 0
BBX 14 9 0 0
BITMAP
3CF0
7FFC
E79C
E7FC
E7FC
E780
E79C
7FFC
3CF0
ENDCHAR

STARTCHAR Ydieresis
ENCODING 130
SWIDTH 720 0
DWIDTH 14 0
BBX 12 15 1 0
BITMAP
6060
F0F0
6060
0000
F0F0
F0F0
70E0
39C0
39C0
1F80
0F00
0F00
0F00
3FC0
3FC0
ENDCHAR

STARTCHAR Error
ENCODING 159
SWIDTH 720 0
DWIDTH 14 0
BBX 14 18 0 -4
BITMAP
1FE0
7FF8
FFFC
F83C
F83C
FC3C
FE00
7F00
1F80
0F80
0F80
0000
0000
0F80
1FC0
1FC0
1FC0
0F80
ENDCHAR

STARTCHAR exclamdown
ENCODING 161
SWIDTH 720 0
DWIDTH 14 0
BBX 6 11 4 0
BITMAP
78
FC
78
00
78
78
78
78
78
78
78
ENDCHAR

STARTCHAR cent
ENCODING 162
SWIDTH 720 0
DWIDTH 14 0
BBX 12 12 1 -1
BITMAP
0700
0700
3FB0
7FF0
F070
F000
F000
F070
7FF0
3FC0
0E00
0E00
ENDCHAR

STARTCHAR sterling
ENCODING 163
SWIDTH 720 0
DWIDTH 14 0
BBX 12 11 1 0
BITMAP
0FC0
3FF0
3C70
3C00
FFC0
FFC0
1E00
1E00
3C30
FFF0
E3C0
ENDCHAR

STARTCHAR currency
ENCODING 164
SWIDTH 720 0
DWIDTH 14 0
BBX 12 9 1 1
BITMAP
F0F0
FFF0
3FC0
F0F0
F0F0
F0F0
3FC0
FFF0
F0F0
ENDCHAR

STARTCHAR yen
ENCODING 165
SWIDTH 720 0
DWIDTH 14 0
BBX 12 11 1 0
BITMAP
F0F0
F0F0
70E0
F9F0
F9F0
1F80
FFF0
FFF0
0F00
0F00
0F00
ENDCHAR

STARTCHAR brokenbar
ENCODING 166
SWIDTH 720 0
DWIDTH 14 0
BBX 4 15 5 -2
BITMAP
F0
F0
F0
F0
F0
F0
00
00
00
F0
F0
F0
F0
F0
F0
ENDCHAR

STARTCHAR section
ENCODING 167
SWIDTH 720 0
DWIDTH 14 0
BBX 12 13 1 -2
BITMAP
0FF0
3FF0
3C30
3C00
7F00
F7C0
F1E0
78F0
3EF0
0FE0
C3C0
FFC0
FF80
ENDCHAR

STARTCHAR dieresis
ENCODING 168
SWIDTH 720 0
DWIDTH 14 0
BBX 12 3 1 11
BITMAP
6060
F0F0
6060
ENDCHAR

STARTCHAR copyright
ENCODING 169
SWIDTH 720 0
DWIDTH 14 0
BBX 14 11 0 0
BITMAP
0FC0
3FF0
F03C
CFCC
CFCC
CC0C
CFCC
CFCC
F03C
3FF0
0FC0
ENDCHAR

STARTCHAR ordfeminine
ENCODING 170
SWIDTH 720 0
DWIDTH 14 0
BBX 12 10 1 1
BITMAP
3FC0
3FF0
00F0
3FF0
F8F0
F1F0
7FF0
0000
FFF0
FFF0
ENDCHAR

STARTCHAR guillemotleft
ENCODING 171
SWIDTH 720 0
DWIDTH 14 0
BBX 12 7 1 0
BITMAP
1C70
38E0
71C0
F3C0
71C0
38E0
1C70
ENDCHAR

STARTCHAR logicalnot
ENCODING 172
SWIDTH 720 0
DWIDTH 14 0
BBX 12 5 1 3
BITMAP
FFF0
FFF0
00F0
00F0
00F0
ENDCHAR

STARTCHAR hyphen
ENCODING 173
SWIDTH 720 0
DWIDTH 14 0
BBX 8 2 3 3
BITMAP
FF
FF
ENDCHAR

STARTCHAR registered
ENCODING 174
SWIDTH 720 0
DWIDTH 14 0
BBX 14 11 0 0
BITMAP
0FC0
3FF0
F03C
CFCC
CCCC
CF8C
CCCC
CCCC
F03C
3FF0
0FC0
ENDCHAR

STARTCHAR macron
ENCODING 175
SWIDTH 720 0
DWIDTH 14 0
BBX 8 2 3 11
BITMAP
FF
FF
ENDCHAR

STARTCHAR degree
ENCODING 176
SWIDTH 720 0
DWIDTH 14 0
BBX 10 6 2 5
BITMAP
3F00
FFC0
E1C0
E1C0
FFC0
3F00
ENDCHAR

STARTCHAR plusminus
ENCODING 177
SWIDTH 720 0
DWIDTH 14 0
BBX 12 11 1 0
BITMAP
0F00
0F00
0F00
FFF0
FFF0
0F00
0F00
0F00
0000
FFF0
FFF0
ENDCHAR

STARTCHAR twosuperior
ENCODING 178
SWIDTH 720 0
DWIDTH 14 0
BBX 8 7 3 4
BITMAP
FC
FF
0F
3C
F0
FF
FF
ENDCHAR

STARTCHAR threesuperior
ENCODING 179
SWIDTH 720 0
DWIDTH 14 0
BBX 8 7 3 4
BITMAP
FC
FF
0F
7C
0F
FF
FC
ENDCHAR

STARTCHAR acute
ENCODING 180
SWIDTH 720 0
DWIDTH 14 0
BBX 8 3 3 11
BITMAP
0F
3C
F0
ENDCHAR

STARTCHAR mu
ENCODING 181
SWIDTH 720 0
DWIDTH 14 0
BBX 12 13 1 -4
BITMAP
3CF0
3CF0
3CF0
38E0
79E0
79E0
79E0
7FF0
7F70
F000
F000
F000
F000
ENDCHAR

STARTCHAR paragraph
ENCODING 182
SWIDTH 720 0
DWIDTH 14 0
BBX 12 13 1 -2
BITMAP
1FF0
7E70
FE70
FE70
FE70
7E70
1E70
0E70
0E70
0E70
0E70
0E70
0E70
ENDCHAR

STARTCHAR periodcentered
ENCODING 183
SWIDTH 720 0
DWIDTH 14 0
BBX 6 3 4 3
BITMAP
78
FC
78
ENDCHAR

STARTCHAR cedilla
ENCODING 184
SWIDTH 720 0
DWIDTH 14 0
BBX 8 4 3 -4
BITMAP
1C
07
FF
7E
ENDCHAR

STARTCHAR onesuperior
ENCODING 185
SWIDTH 720 0
DWIDTH 14 0
BBX 8 7 3 4
BITMAP
FC
3C
3C
3C
3C
3C
FF
ENDCHAR

STARTCHAR ordmasculine
ENCODING 186
SWIDTH 720 0
DWIDTH 14 0
BBX 12 10 1 1
BITMAP
3FC0
7FE0
F0F0
F0F0
F0F0
7FE0
3FC0
0000
FFF0
FFF0
ENDCHAR

STARTCHAR guillemotright
ENCODING 187
SWIDTH 720 0
DWIDTH 14 0
BBX 12 7 1 0
BITMAP
E380
71C0
38E0
3CF0
38E0
71C0
E380
ENDCHAR

STARTCHAR onequarter
ENCODING 188
SWIDTH 720 0
DWIDTH 14 0
BBX 14 16 0 -4
BITMAP
FC00
3C00
3C00
3C00
3C00
3C00
FF38
01F0
0FC0
7E00
F0F8
01F8
0678
07FC
07FC
0078
ENDCHAR

STARTCHAR onehalf
ENCODING 189
SWIDTH 720 0
DWIDTH 14 0
BBX 14 16 0 -4
BITMAP
FC00
3C00
3C00
3C00
3C00
3C00
FF38
01F0
0FC0
7E00
F3F0
03FC
003C
00F0
03FC
03FC
ENDCHAR

STARTCHAR threequarters
ENCODING 190
SWIDTH 720 0
DWIDTH 14 0
BBX 13 16 0 -4
BITMAP
FC00
FE00
1E00
7C00
1E00
FE00
FC38
01F0
0FC0
7E00
F1F0
03F0
0CF0
0FF8
0FF8
00F0
ENDCHAR

STARTCHAR questiondown
ENCODING 191
SWIDTH 720 0
DWIDTH 14 0
BBX 12 11 1 0
BITMAP
0F00
1F80
0F00
0000
0F00
0F00
3E00
FC00
F070
FFF0
7FC0
ENDCHAR

STARTCHAR Agrave
ENCODING 192
SWIDTH 720 0
DWIDTH 14 0
BBX 12 15 1 0
BITMAP
7800
1E00
0780
0000
0F00
1F80
3FC0
79E0
F0F0
F0F0
FFF0
FFF0
F0F0
F0F0
F0F0
ENDCHAR

STARTCHAR Aacute
ENCODING 193
SWIDTH 720 0
DWIDTH 14 0
BBX 12 15 1 0
BITMAP
01E0
0780
1E00
0000
0F00
1F80
3FC0
79E0
F0F0
F0F0
FFF0
FFF0
F0F0
F0F0
F0F0
ENDCHAR

STARTCHAR Acircumflex
ENCODING 194
SWIDTH 720 0
DWIDTH 14 0
BBX 12 15 1 0
BITMAP
0F00
0F00
30C0
0000
0F00
1F80
3FC0
79E0
F0F0
F0F0
FFF0
FFF0
F0F0
F0F0
F0F0
ENDCHAR

STARTCHAR Atilde
ENCODING 195
SWIDTH 720 0
DWIDTH 14 0
BBX 12 15 1 0
BITMAP
1C60
7FE0
6380
0000
0F00
1F80
3FC0
79E0
F0F0
F0F0
FFF0
FFF0
F0F0
F0F0
F0F0
ENDCHAR

STARTCHAR Adieresis
ENCODING 196
SWIDTH 720 0
DWIDTH 14 0
BBX 12 15 1 0
BITMAP
6060
F0F0
6060
0000
0F00
1F80
3FC0
79E0
F0F0
F0F0
FFF0
FFF0
F0F0
F0F0
F0F0
ENDCHAR

STARTCHAR Aring
ENCODING 197
SWIDTH 720 0
DWIDTH 14 0
BBX 12 15 1 0
BITMAP
0F00
3FC0
39C0
39C0
3FC0
1F80
3FC0
79E0
F0F0
F0F0
FFF0
FFF0
F0F0
F0F0
F0F0
ENDCHAR

STARTCHAR AE
ENCODING 198
SWIDTH 720 0
DWIDTH 14 0
BBX 12 11 1 0
BITMAP
3FF0
3FF0
3BC0
73C0
73F0
73F0
7FC0
FFC0
F3C0
F3F0
F3F0
ENDCHAR

STARTCHAR Ccedilla
ENCODING 199
SWIDTH 720 0
DWIDTH 14 0
BBX 12 15 1 -4
BITMAP
1FB0
7FF0
7870
F070
F000
F000
F000
F000
7870
7FF0
1FC0
0700
01C0
3FC0
1F80
ENDCHAR

STARTCHAR Egrave
ENCODING 200
SWIDTH 720 0
DWIDTH 14 0
BBX 12 15 1 0
BITMAP
7800
1E00
0780
0000
FFF0
FFF0
F000
F000
FFC0
FFC0
F000
F000
F000
FFF0
FFF0
ENDCHAR

STARTCHAR Eacute
ENCODING 201
SWIDTH 720 0
DWIDTH 14 0
BBX 12 15 1 0
BITMAP
01E0
0780
1E00
0000
FFF0
FFF0
F000
F000
FFC0
FFC0
F000
F000
F000
FFF0
FFF0
ENDCHAR

STARTCHAR Ecircumflex
ENCODING 202
SWIDTH 720 0
DWIDTH 14 0
BBX 12 15 1 0
BITMAP
0F00
0F00
30C0
0000
FFF0
FFF0
F000
F000
FFC0
FFC0
F000
F000
F000
FFF0
FFF0
ENDCHAR

STARTCHAR Edieresis
ENCODING 203
SWIDTH 720 0
DWIDTH 14 0
BBX 12 15 1 0
BITMAP
6060
F0F0
6060
0000
FFF0
FFF0
F000
F000
FFC0
FFC0
F000
F000
F000
FFF0
FFF0
ENDCHAR

STARTCHAR Igrave
ENCODING 204
SWIDTH 720 0
DWIDTH 14 0
BBX 12 15 1 0
BITMAP
3C00
0F00
03C0
0000
FFF0
FFF0
0F00
0F00
0F00
0F00
0F00
0F00
0F00
FFF0
FFF0
ENDCHAR

STARTCHAR Iacute
ENCODING 205
SWIDTH 720 0
DWIDTH 14 0
BBX 12 15 1 0
BITMAP
01E0
0780
1E00
0000
FFF0
FFF0
0F00
0F00
0F00
0F00
0F00
0F00
0F00
FFF0
FFF0
ENDCHAR

STARTCHAR Icircumflex
ENCODING 206
SWIDTH 720 0
DWIDTH 14 0
BBX 12 15 1 0
BITMAP
0F00
0F00
30C0
0000
FFF0
FFF0
0F00
0F00
0F00
0F00
0F00
0F00
0F00
FFF0
FFF0
ENDCHAR

STARTCHAR Idieresis
ENCODING 207
SWIDTH 720 0
DWIDTH 14 0
BBX 12 15 1 0
BITMAP
6060
F0F0
6060
0000
FFF0
FFF0
0F00
0F00
0F00
0F00
0F00
0F00
0F00
FFF0
FFF0
ENDCHAR

STARTCHAR Eth
ENCODING 208
SWIDTH 720 0
DWIDTH 14 0
BBX 13 11 0 0
BITMAP
7FC0
7FF0
78F0
7878
FF78
FF78
7878
7878
78F0
7FF0
7FC0
ENDCHAR

STARTCHAR Ntilde
ENCODING 209
SWIDTH 720 0
DWIDTH 14 0
BBX 12 15 1 0
BITMAP
1C60
7FE0
6380
0000
F0F0
F8F0
F8F0
FCF0
F4F0
F6F0
F2F0
F3F0
F1F0
F1F0
F0F0
ENDCHAR

STARTCHAR Ograve
ENCODING 210
SWIDTH 720 0
DWIDTH 14 0
BBX 12 15 1 0
BITMAP
7800
1E00
0780
0000
1F80
7FE0
79E0
F0F0
F0F0
F0F0
F0F0
F0F0
79E0
7FE0
1F80
ENDCHAR

STARTCHAR Oacute
ENCODING 211
SWIDTH 720 0
DWIDTH 14 0
BBX 12 15 1 0
BITMAP
01E0
0780
1E00
0000
1F80
7FE0
79E0
F0F0
F0F0
F0F0
F0F0
F0F0
79E0
7FE0
1F80
ENDCHAR

STARTCHAR Ocircumflex
ENCODING 212
SWIDTH 720 0
DWIDTH 14 0
BBX 12 15 1 0
BITMAP
0F00
0F00
30C0
0000
1F80
7FE0
79E0
F0F0
F0F0
F0F0
F0F0
F0F0
79E0
7FE0
1F80
ENDCHAR

STARTCHAR Otilde
ENCODING 213
SWIDTH 720 0
DWIDTH 14 0
BBX 12 15 1 0
BITMAP
1C60
7FE0
6380
0000
1F80
7FE0
79E0
F0F0
F0F0
F0F0
F0F0
F0F0
79E0
7FE0
1F80
ENDCHAR

STARTCHAR Odieresis
ENCODING 214
SWIDTH 720 0
DWIDTH 14 0
BBX 12 15 1 0
BITMAP
6060
F0F0
6060
0000
1F80
7FE0
79E0
F0F0
F0F0
F0F0
F0F0
F0F0
79E0
7FE0
1F80
ENDCHAR

STARTCHAR multiply
ENCODING 215
SWIDTH 720 0
DWIDTH 14 0
BBX 12 7 1 2
BITMAP
E070
F9F0
3FC0
0F00
3FC0
F9F0
E070
ENDCHAR

STARTCHAR Oslash
ENCODING 216
SWIDTH 720 0
DWIDTH 14 0
BBX 12 13 1 -1
BITMAP
0030
1FF0
7FE0
79E0
F3F0
F3F0
F6F0
F6F0
FCF0
79E0
7FE0
FF80
C000
ENDCHAR

STARTCHAR Ugrave
ENCODING 217
SWIDTH 720 0
DWIDTH 14 0
BBX 12 15 1 0
BITMAP
7800
1E00
0780
0000
F0F0
F0F0
F0F0
F0F0
F0F0
F0F0
F0F0
F0F0
F9F0
7FE0
3FC0
ENDCHAR

STARTCHAR Uacute
ENCODING 218
SWIDTH 720 0
DWIDTH 14 0
BBX 12 15 1 0
BITMAP
01E0
0780
1E00
0000
F0F0
F0F0
F0F0
F0F0
F0F0
F0F0
F0F0
F0F0
F9F0
7FE0
3FC0
ENDCHAR

STARTCHAR Ucircumflex
ENCODING 219
SWIDTH 720 0
DWIDTH 14 0
BBX 12 15 1 0
BITMAP
0F00
0F00
30C0
0000
F0F0
F0F0
F0F0
F0F0
F0F0
F0F0
F0F0
F0F0
F9F0
7FE0
3FC0
ENDCHAR

STARTCHAR Udieresis
ENCODING 220
SWIDTH 720 0
DWIDTH 14 0
BBX 12 15 1 0
BITMAP
6060
F0F0
6060
0000
F0F0
F0F0
F0F0
F0F0
F0F0
F0F0
F0F0
F0F0
F9F0
7FE0
3FC0
ENDCHAR

STARTCHAR Yacute
ENCODING 221
SWIDTH 720 0
DWIDTH 14 0
BBX 12 15 1 0
BITMAP
01E0
0780
1E00
0000
F0F0
F0F0
70E0
39C0
39C0
1F80
0F00
0F00
0F00
0F00
0F00
ENDCHAR

STARTCHAR Thorn
ENCODING 222
SWIDTH 720 0
DWIDTH 14 0
BBX 12 11 1 0
BITMAP
F000
F000
FFC0
FFF0
F0F0
F0F0
F0F0
FFF0
FFC0
F000
F000
ENDCHAR

STARTCHAR germandbls
ENCODING 223
SWIDTH 720 0
DWIDTH 14 0
BBX 12 12 1 0
BITMAP
3FC0
7FF0
F0F0
F0F0
F3C0
F3E0
F0F0
F0F0
F0F0
F0F0
F7E0
F7C0
ENDCHAR

STARTCHAR agrave
ENCODING 224
SWIDTH 720 0
DWIDTH 14 0
BBX 12 14 1 0
BITMAP
3C00
0F00
03C0
0000
0000
3FC0
7FF0
00F0
3FF0
FFF0
F0F0
F0F0
FFF0
3EF0
ENDCHAR

STARTCHAR aacute
ENCODING 225
SWIDTH 720 0
DWIDTH 14 0
BBX 12 14 1 0
BITMAP
01E0
0780
1E00
0000
0000
3FC0
7FF0
00F0
3FF0
FFF0
F0F0
F0F0
FFF0
3EF0
ENDCHAR

STARTCHAR acircumflex
ENCODING 226
SWIDTH 720 0
DWIDTH 14 0
BBX 12 14 1 0
BITMAP
0F00
0F00
30C0
0000
0000
3FC0
7FF0
00F0
3FF0
FFF0
F0F0
F0F0
FFF0
3EF0
ENDCHAR

STARTCHAR atilde
ENCODING 227
SWIDTH 720 0
DWIDTH 14 0
BBX 12 14 1 0
BITMAP
1C60
7FE0
6380
0000
0000
3FC0
7FF0
00F0
3FF0
FFF0
F0F0
F0F0
FFF0
3EF0
ENDCHAR

STARTCHAR adieresis
ENCODING 228
SWIDTH 720 0
DWIDTH 14 0
BBX 12 14 1 0
BITMAP
6060
F0F0
6060
0000
0000
3FC0
7FF0
00F0
3FF0
FFF0
F0F0
F0F0
FFF0
3EF0
ENDCHAR

STARTCHAR aring
ENCODING 229
SWIDTH 720 0
DWIDTH 14 0
BBX 12 14 1 0
BITMAP
0F00
3FC0
39C0
3FC0
0F00
3FC0
7FF0
00F0
3FF0
FFF0
F0F0
F0F0
FFF0
3EF0
ENDCHAR

STARTCHAR ae
ENCODING 230
SWIDTH 720 0
DWIDTH 14 0
BBX 12 9 1 0
BITMAP
7DE0
7FF0
0730
3FF0
FFF0
E700
E700
FFF0
3DF0
ENDCHAR

STARTCHAR ccedilla
ENCODING 231
SWIDTH 720 0
DWIDTH 14 0
BBX 12 13 1 -4
BITMAP
3FB0
7FF0
F0F0
F070
F000
F000
F070
7FF0
3FC0
0700
01C0
3FC0
1F80
ENDCHAR

STARTCHAR egrave
ENCODING 232
SWIDTH 720 0
DWIDTH 14 0
BBX 12 14 1 0
BITMAP
3C00
0F00
03C0
0000
0000
3FC0
7FE0
F0F0
FFF0
FFF0
F000
F070
7FF0
3FC0
ENDCHAR

STARTCHAR eacute
ENCODING 233
SWIDTH 720 0
DWIDTH 14 0
BBX 12 14 1 0
BITMAP
03C0
0F00
3C00
0000
0000
3FC0
7FE0
F0F0
FFF0
FFF0
F000
F070
7FF0
3FC0
ENDCHAR

STARTCHAR ecircumflex
ENCODING 234
SWIDTH 720 0
DWIDTH 14 0
BBX 12 14 1 0
BITMAP
0F00
0F00
30C0
0000
0000
3FC0
7FE0
F0F0
FFF0
FFF0
F000
F070
7FF0
3FC0
ENDCHAR

STARTCHAR edieresis
ENCODING 235
SWIDTH 720 0
DWIDTH 14 0
BBX 12 14 1 0
BITMAP
6060
F0F0
6060
0000
0000
3FC0
7FE0
F0F0
FFF0
FFF0
F000
F070
7FF0
3FC0
ENDCHAR

STARTCHAR igrave
ENCODING 236
SWIDTH 720 0
DWIDTH 14 0
BBX 12 14 1 0
BITMAP
3C00
0F00
03C0
0000
0000
7F00
7F00
0F00
0F00
0F00
0F00
0F00
FFF0
FFF0
ENDCHAR

STARTCHAR iacute
ENCODING 237
SWIDTH 720 0
DWIDTH 14 0
BBX 12 14 1 0
BITMAP
03C0
0F00
3C00
0000
0000
7F00
7F00
0F00
0F00
0F00
0F00
0F00
FFF0
FFF0
ENDCHAR

STARTCHAR icircumflex
ENCODING 238
SWIDTH 720 0
DWIDTH 14 0
BBX 12 14 1 0
BITMAP
0F00
0F00
30C0
0000
0000
7F00
7F00
0F00
0F00
0F00
0F00
0F00
FFF0
FFF0
ENDCHAR

STARTCHAR idieresis
ENCODING 239
SWIDTH 720 0
DWIDTH 14 0
BBX 12 14 1 0
BITMAP
6060
F0F0
6060
0000
0000
7F00
7F00
0F00
0F00
0F00
0F00
0F00
FFF0
FFF0
ENDCHAR

STARTCHAR eth
ENCODING 240
SWIDTH 720 0
DWIDTH 14 0
BBX 12 12 1 0
BITMAP
3EE0
0780
1F80
01E0
3FE0
7FF0
F0F0
F0F0
F0F0
F0F0
7FE0
3FC0
ENDCHAR

STARTCHAR ntilde
ENCODING 241
SWIDTH 720 0
DWIDTH 14 0
BBX 12 14 1 0
BITMAP
1C60
7FE0
6380
0000
0000
F3E0
FFF0
F8F0
F0F0
F0F0
F0F0
F0F0
F0F0
F0F0
ENDCHAR

STARTCHAR ograve
ENCODING 242
SWIDTH 720 0
DWIDTH 14 0
BBX 12 14 1 0
BITMAP
7800
1E00
0780
0000
0000
3FC0
7FE0
F0F0
F0F0
F0F0
F0F0
F0F0
7FE0
3FC0
ENDCHAR

STARTCHAR oacute
ENCODING 243
SWIDTH 720 0
DWIDTH 14 0
BBX 12 14 1 0
BITMAP
01E0
0780
1E00
0000
0000
3FC0
7FE0
F0F0
F0F0
F0F0
F0F0
F0F0
7FE0
3FC0
ENDCHAR

STARTCHAR ocircumflex
ENCODING 244
SWIDTH 720 0
DWIDTH 14 0
BBX 12 14 1 0
BITMAP
0F00
0F00
30C0
0000
0000
3FC0
7FE0
F0F0
F0F0
F0F0
F0F0
F0F0
7FE0
3FC0
ENDCHAR

STARTCHAR otilde
ENCODING 245
SWIDTH 720 0
DWIDTH 14 0
BBX 12 14 1 0
BITMAP
1C60
7FE0
6380
0000
0000
3FC0
7FE0
F0F0
F0F0
F0F0
F0F0
F0F0
7FE0
3FC0
ENDCHAR

STARTCHAR odieresis
ENCODING 246
SWIDTH 720 0
DWIDTH 14 0
BBX 12 14 1 0
BITMAP
6060
F0F0
6060
0000
0000
3FC0
7FE0
F0F0
F0F0
F0F0
F0F0
F0F0
7FE0
3FC0
ENDCHAR

STARTCHAR divide
ENCODING 247
SWIDTH 720 0
DWIDTH 14 0
BBX 12 10 1 0
BITMAP
0F00
0F00
0F00
0000
FFF0
FFF0
0000
0F00
0F00
0F00
ENDCHAR

STARTCHAR oslash
ENCODING 248
SWIDTH 720 0
DWIDTH 14 0
BBX 12 9 1 0
BITMAP
3FD0
7FE0
F1F0
F3F0
F6F0
FCF0
F8F0
7FE0
BFC0
ENDCHAR

STARTCHAR ugrave
ENCODING 249
SWIDTH 720 0
DWIDTH 14 0
BBX 12 14 1 0
BITMAP
3C00
0F00
03C0
0000
0000
F0F0
F0F0
F0F0
F0F0
F0F0
F0F0
F1F0
7FF0
3EF0
ENDCHAR

STARTCHAR uacute
ENCODING 250
SWIDTH 720 0
DWIDTH 14 0
BBX 12 14 1 0
BITMAP
01E0
0780
1E00
0000
0000
F0F0
F0F0
F0F0
F0F0
F0F0
F0F0
F1F0
7FF0
3EF0
ENDCHAR

STARTCHAR ucircumflex
ENCODING 251
SWIDTH 720 0
DWIDTH 14 0
BBX 12 14 1 0
BITMAP
0F00
0F00
30C0
0000
0000
F0F0
F0F0
F0F0
F0F0
F0F0
F0F0
F1F0
7FF0
3EF0
ENDCHAR

STARTCHAR udieresis
ENCODING 252
SWIDTH 720 0
DWIDTH 14 0
BBX 12 14 1 0
BITMAP
6060
F0F0
6060
0000
0000
F0F0
F0F0
F0F0
F0F0
F0F0
F0F0
F1F0
7FF0
3EF0
ENDCHAR

STARTCHAR yacute
ENCODING 253
SWIDTH 720 0
DWIDTH 14 0
BBX 12 18 1 -4
BITMAP
01E0
0780
1E00
0000
0000
F0F0
F0F0
70E0
79E0
39C0
39C0
1F80
1F80
0F00
0F00
0E00
3F80
3F80
ENDCHAR

STARTCHAR thorn
ENCODING 254
SWIDTH 720 0
DWIDTH 14 0
BBX 12 16 1 -4
BITMAP
F000
F000
F000
F7C0
FFE0
F8F0
F0F0
F0F0
F0F0
F8F0
FFE0
F7C0
F000
F000
F000
F000
ENDCHAR

STARTCHAR ydieresis
ENCODING 255
SWIDTH 720 0
DWIDTH 14 0
BBX 12 18 1 -4
BITMAP
6060
F0F0
6060
0000
0000
F0F0
F0F0
70E0
79E0
39C0
39C0
1F80
1F80
0F00
0F00
0E00
3F80
3F80
ENDCHAR
ENDFONT
